<svg width="44" height="34" viewBox="0 0 44 34" fill="none" xmlns="http://www.w3.org/2000/svg">
<path d="M36.422 3.3454C33.6797 2.08715 30.7391 1.16013 27.6645 0.62918C27.6085 0.618933 27.5526 0.644541 27.5237 0.695759C27.1455 1.3684 26.7266 2.24592 26.4333 2.93564C23.1263 2.44056 19.8364 2.44056 16.5972 2.93564C16.3038 2.23058 15.8697 1.3684 15.4898 0.695759C15.461 0.64625 15.405 0.620642 15.349 0.62918C12.2761 1.15843 9.33551 2.08545 6.59158 3.3454C6.56782 3.35564 6.54746 3.37273 6.53395 3.39491C0.956202 11.7279 -0.571777 19.8562 0.177798 27.8836C0.18119 27.9229 0.203236 27.9604 0.233762 27.9843C3.9138 30.6869 7.47855 32.3275 10.9771 33.415C11.0331 33.4321 11.0924 33.4116 11.128 33.3655C11.9556 32.2354 12.6933 31.0437 13.3259 29.7906C13.3632 29.7172 13.3276 29.6301 13.2513 29.6011C12.0811 29.1572 10.9669 28.616 9.89513 28.0014C9.81035 27.9519 9.80356 27.8306 9.88155 27.7726C10.1071 27.6036 10.3327 27.4277 10.5481 27.2502C10.587 27.2178 10.6413 27.2109 10.6871 27.2314C17.7284 30.4462 25.3513 30.4462 32.3094 27.2314C32.3553 27.2092 32.4095 27.2161 32.4502 27.2485C32.6656 27.426 32.8912 27.6036 33.1184 27.7726C33.1964 27.8306 33.1913 27.9519 33.1065 28.0014C32.0348 28.6279 30.9205 29.1572 29.7487 29.5994C29.6724 29.6284 29.6385 29.7172 29.6758 29.7906C30.3219 31.042 31.0596 32.2336 31.8719 33.3638C31.9059 33.4116 31.9669 33.4321 32.0229 33.415C35.5384 32.3275 39.1031 30.6869 42.7831 27.9843C42.8154 27.9604 42.8358 27.9246 42.8391 27.8853C43.7362 18.6047 41.3366 10.5431 36.4779 3.39661C36.466 3.37273 36.4457 3.35564 36.422 3.3454ZM14.3774 22.9957C12.2575 22.9957 10.5107 21.0495 10.5107 18.6594C10.5107 16.2692 12.2236 14.323 14.3774 14.323C16.548 14.323 18.2779 16.2863 18.2439 18.6594C18.2439 21.0495 16.5311 22.9957 14.3774 22.9957ZM28.6735 22.9957C26.5537 22.9957 24.807 21.0495 24.807 18.6594C24.807 16.2692 26.5198 14.323 28.6735 14.323C30.8442 14.323 32.574 16.2863 32.5401 18.6594C32.5401 21.0495 30.8442 22.9957 28.6735 22.9957Z" fill="white"/>
</svg>
