<svg width="44" height="43" viewBox="0 0 44 43" fill="none" xmlns="http://www.w3.org/2000/svg">
<path fill-rule="evenodd" clip-rule="evenodd" d="M22.4883 0.791992C17.3813 0.794642 12.4418 2.60342 8.55304 5.89491C4.66424 9.18639 2.07973 13.7459 1.26162 18.7583C0.443513 23.7706 1.44516 28.9088 4.08747 33.2542C6.72979 37.5996 10.8405 40.8688 15.6844 42.4772C16.7531 42.6755 17.1556 42.0132 17.1556 41.45C17.1556 40.8869 17.1343 39.254 17.1271 37.4689C11.1426 38.7617 9.87804 34.9435 9.87804 34.9435C8.902 32.4641 7.49136 31.8124 7.49136 31.8124C5.53927 30.4877 7.63742 30.5125 7.63742 30.5125C9.79968 30.6648 10.936 32.7191 10.936 32.7191C12.8525 35.9883 15.9694 35.0427 17.1948 34.4901C17.3872 33.1052 17.9465 32.163 18.5627 31.6282C13.7822 31.0898 8.7595 29.2551 8.7595 21.059C8.72988 18.9334 9.52316 16.8778 10.9752 15.3175C10.7544 14.7792 10.017 12.6044 11.1854 9.65041C11.1854 9.65041 12.9914 9.07662 17.1022 11.8429C20.6282 10.8841 24.3484 10.8841 27.8743 11.8429C31.9816 9.07662 33.784 9.65041 33.784 9.65041C34.956 12.5973 34.2186 14.7721 33.9978 15.3175C35.4544 16.8781 36.2494 18.9373 36.217 21.0661C36.217 29.2799 31.1836 31.0898 26.396 31.6176C27.1655 32.2835 27.853 33.5834 27.853 35.581C27.853 38.4429 27.828 40.7452 27.828 41.45C27.828 42.0203 28.2163 42.6862 29.3063 42.4772C34.1509 40.8686 38.262 37.5988 40.9042 33.2527C43.5465 28.9066 44.5476 23.7676 43.7286 18.7548C42.9096 13.742 40.3238 9.18238 36.4337 5.89147C32.5436 2.60055 27.6029 0.792962 22.4954 0.791992H22.4883Z" fill="white"/>
</svg>
