<svg width="44" height="44" viewBox="0 0 44 44" fill="none" xmlns="http://www.w3.org/2000/svg">
<g clip-path="url(#clip0_123_38)">
<path fill-rule="evenodd" clip-rule="evenodd" d="M43.5122 22.4082C43.5122 34.289 33.8808 43.9204 22 43.9204C10.1191 43.9204 0.487793 34.289 0.487793 22.4082C0.487793 10.5273 10.1191 0.895996 22 0.895996C33.8808 0.895996 43.5122 10.5273 43.5122 22.4082ZM22.7709 16.7774C20.6785 17.6476 16.4967 19.4489 10.2255 22.1812C9.20712 22.5862 8.67366 22.9823 8.6251 23.3697C8.54303 24.0244 9.36287 24.2822 10.4793 24.6332C10.6311 24.681 10.7885 24.7305 10.9498 24.7829C12.0482 25.1399 13.5257 25.5576 14.2938 25.5742C14.9905 25.5893 15.7682 25.302 16.6267 24.7125C22.4861 20.7572 25.5108 18.7581 25.7007 18.715C25.8346 18.6845 26.0203 18.6463 26.1461 18.7581C26.2718 18.8699 26.2595 19.0816 26.2462 19.1385C26.1649 19.4847 22.9467 22.4766 21.2813 24.0249C20.7622 24.5076 20.3939 24.85 20.3186 24.9282C20.15 25.1033 19.9781 25.269 19.8129 25.4283C18.7925 26.4119 18.0273 27.1496 19.8553 28.3542C20.7337 28.9331 21.4367 29.4118 22.1379 29.8894C22.9038 30.411 23.6677 30.9312 24.6561 31.5791C24.9079 31.7441 25.1484 31.9156 25.3826 32.0826C26.2739 32.718 27.0746 33.2888 28.0639 33.1978C28.6387 33.1449 29.2325 32.6044 29.5341 30.9923C30.2467 27.1825 31.6476 18.9277 31.9713 15.5261C31.9997 15.2281 31.964 14.8467 31.9353 14.6793C31.9067 14.5118 31.8468 14.2733 31.6292 14.0967C31.3714 13.8876 30.9735 13.8435 30.7956 13.8466C29.9864 13.8608 28.7451 14.2925 22.7709 16.7774Z" fill="white"/>
</g>
<defs>
<clipPath id="clip0_123_38">
<rect width="43.0244" height="43.0244" fill="white" transform="translate(0.487793 0.895996)"/>
</clipPath>
</defs>
</svg>
