<svg width="44" height="36" viewBox="0 0 44 36" fill="none" xmlns="http://www.w3.org/2000/svg">
<path d="M14.279 35.8868C30.5106 35.8868 39.3911 22.4358 39.3911 10.7747C39.3911 10.3966 39.3827 10.01 39.3659 9.63186C41.0934 8.38254 42.5843 6.83509 43.7683 5.0622C42.1595 5.77803 40.4512 6.24552 38.7021 6.44873C40.5438 5.34475 41.9228 3.61044 42.5835 1.56731C40.8508 2.59414 38.956 3.31849 36.9802 3.70929C35.649 2.29477 33.8889 1.3582 31.9719 1.04436C30.055 0.730522 28.0881 1.05691 26.3753 1.97305C24.6625 2.88919 23.2991 4.34407 22.4961 6.11274C21.6931 7.88141 21.495 9.86537 21.9326 11.7579C18.4243 11.5818 14.9921 10.6704 11.8586 9.08283C8.72503 7.49522 5.96011 5.26682 3.74306 2.54208C2.61623 4.48486 2.27142 6.7838 2.77871 8.97167C3.28599 11.1595 4.6073 13.0722 6.4741 14.3209C5.07262 14.2764 3.70184 13.899 2.47502 13.22V13.3293C2.47376 15.3681 3.1786 17.3444 4.46971 18.9223C5.76082 20.5002 7.55853 21.5822 9.55723 21.9846C8.25898 22.3398 6.89641 22.3915 5.57496 22.1358C6.13896 23.8892 7.23629 25.4228 8.71382 26.5225C10.1913 27.6222 11.9753 28.2332 13.8168 28.2702C10.6905 30.7259 6.82864 32.0579 2.85316 32.0516C2.14814 32.0505 1.44382 32.0073 0.743958 31.9222C4.78261 34.5132 9.48065 35.8893 14.279 35.8868Z" fill="white"/>
</svg>
